# xmcd
#
# Track frame offsets: 
#        150
#        20130
#        33662
#        53712
#        69187
#        87892
#        99165
#        111535
#        125982
#        140312
#        164245
#        183482
#        195330
#        214150
#        226402
#
# Disc length: 3162 seconds
#
# Revision: 2
# Processed by: cddbd v1.5.1PL2 Copyright (c) Steve Scherf et al.
# Submitted via: ExactAudioCopy v0.95b3
#
DISCID=da0c580f
DTITLE=A Tribute to Berry Gordy - The Music, The Magic, The Memories o
DTITLE=f Motown
DYEAR=1995
DGENRE=Blues
TTITLE0=Do You Love Me
TTITLE1=Try It Baby
TTITLE2=I Want to Go Back There Again
TTITLE3=I'll Be There
TTITLE4=You've Made Me So Very Happy
TTITLE5=To Be Loved
TTITLE6=Lonely Teardops
TTITLE7=Did You Know (Barry's Theme)
TTITLE8=It's So Hard to Say Goodbye to Yesterday (Radio Mix)
TTITLE9=You Are You
TTITLE10=(You're My) Dream Come True
TTITLE11=Money (That's What I Want)
TTITLE12=Power
TTITLE13=You've Got What it Takes
TTITLE14=We Couldn't Get Along Without You
EXTD=
EXTT0=
EXTT1=
EXTT2=
EXTT3=
EXTT4=
EXTT5=
EXTT6=
EXTT7=
EXTT8=
EXTT9=
EXTT10=
EXTT11=
EXTT12=
EXTT13=
EXTT14=
PLAYORDER=
